<svg width="100%" height="100%" viewBox="0 0 19.8751 19.1258" fill="none" xmlns="http://www.w3.org/2000/svg">
<path id="Vector" d="M19.6136 13.3358C19.5333 13.2851 19.4416 13.2555 19.3468 13.2497C19.2521 13.244 19.1574 13.2623 19.0717 13.303C18.798 13.4323 18.4993 13.4998 18.1966 13.5006C17.894 13.5015 17.5948 13.4357 17.3204 13.308C17.046 13.1803 16.8031 12.9938 16.6089 12.7617C16.4147 12.5295 16.2739 12.2575 16.1966 11.9649C16.1193 11.6723 16.1074 11.3662 16.1616 11.0685C16.2159 10.7707 16.335 10.4886 16.5105 10.242C16.686 9.99544 16.9136 9.79053 17.1772 9.64181C17.4408 9.49309 17.7339 9.40421 18.0357 9.38147C18.3919 9.3557 18.7487 9.42221 19.0717 9.57459C19.1574 9.61523 19.252 9.63352 19.3467 9.62777C19.4414 9.62202 19.5331 9.59242 19.6133 9.54171C19.6935 9.491 19.7595 9.42084 19.8053 9.33775C19.8511 9.25465 19.8751 9.16133 19.8751 9.06647V5.06334C19.8751 4.71524 19.7368 4.38141 19.4907 4.13526C19.2445 3.88912 18.9107 3.75084 18.5626 3.75084H14.9514C14.9837 3.56509 15.0001 3.37689 15.0001 3.18834C14.9994 2.75303 14.9099 2.32244 14.7369 1.92296C14.5639 1.52349 14.3112 1.16355 13.9942 0.865216C13.6775 0.564927 13.3019 0.333637 12.8912 0.185981C12.4805 0.0383249 12.0436 -0.0224832 11.6082 0.00740392C11.1602 0.0362721 10.7234 0.15945 10.3263 0.368871C9.92919 0.578292 9.58081 0.869232 9.30396 1.22264C9.02711 1.57605 8.82804 1.98395 8.71978 2.41963C8.61152 2.85531 8.59651 3.30895 8.67574 3.75084H5.06261C4.71452 3.75084 4.38068 3.88912 4.13454 4.13526C3.88839 4.38141 3.75011 4.71524 3.75011 5.06334V8.30053C3.2274 8.20685 2.68956 8.24525 2.18545 8.41225C1.68135 8.57925 1.22695 8.86955 0.863551 9.25678C0.451477 9.69574 0.172151 10.2424 0.057909 10.8336C-0.056333 11.4247 -0.000819078 12.0361 0.218024 12.597C0.436868 13.1579 0.810091 13.6453 1.29449 14.0029C1.77888 14.3604 2.35464 14.5735 2.95511 14.6174C3.2208 14.6366 3.48784 14.6227 3.75011 14.5762V17.8133C3.75011 18.1614 3.88839 18.4953 4.13454 18.7414C4.38068 18.9876 4.71452 19.1258 5.06261 19.1258H18.5626C18.9107 19.1258 19.2445 18.9876 19.4907 18.7414C19.7368 18.4953 19.8751 18.1614 19.8751 17.8133V13.8112C19.8751 13.7163 19.8512 13.623 19.8054 13.5399C19.7597 13.4568 19.6937 13.3866 19.6136 13.3358ZM18.7501 17.8133C18.7501 17.8631 18.7304 17.9108 18.6952 17.9459C18.66 17.9811 18.6123 18.0008 18.5626 18.0008H5.06261C5.01289 18.0008 4.96519 17.9811 4.93003 17.9459C4.89487 17.9108 4.87511 17.8631 4.87511 17.8133V13.8112C4.87511 13.662 4.81585 13.5189 4.71036 13.4134C4.60487 13.3079 4.4618 13.2487 4.31261 13.2487C4.22924 13.2485 4.14688 13.267 4.07168 13.303C3.76748 13.4473 3.4326 13.5149 3.09628 13.4999C2.75995 13.4849 2.4324 13.3878 2.14223 13.2171C1.85206 13.0464 1.60808 12.8073 1.4316 12.5206C1.25512 12.2339 1.15151 11.9084 1.1298 11.5724C1.10641 11.2139 1.1771 10.8554 1.33486 10.5326C1.49262 10.2098 1.73197 9.93377 2.02922 9.73191C2.32647 9.53005 2.67129 9.40935 3.02954 9.38175C3.38778 9.35416 3.74702 9.42063 4.07168 9.57459C4.1574 9.61523 4.25201 9.63352 4.3467 9.62777C4.4414 9.62202 4.5331 9.59242 4.61328 9.54171C4.69346 9.491 4.75951 9.42084 4.80529 9.33775C4.85107 9.25465 4.87509 9.16133 4.87511 9.06647V5.06334C4.87511 5.01361 4.89487 4.96592 4.93003 4.93076C4.96519 4.8956 5.01289 4.87584 5.06261 4.87584H9.4398C9.53467 4.87581 9.62799 4.85179 9.71108 4.80601C9.79417 4.76023 9.86433 4.69418 9.91504 4.614C9.96575 4.53383 9.99536 4.44212 10.0011 4.34743C10.0069 4.25274 9.98856 4.15813 9.94793 4.0724C9.79867 3.75022 9.73413 3.39526 9.76043 3.04115C9.78237 2.73902 9.87061 2.44543 10.0189 2.18125C10.1671 1.91707 10.3717 1.68879 10.6182 1.51264C10.8646 1.33648 11.1468 1.21678 11.4448 1.16204C11.7427 1.1073 12.0491 1.11886 12.342 1.1959C12.635 1.27294 12.9074 1.41357 13.1399 1.6078C13.3724 1.80203 13.5592 2.04508 13.6871 2.31968C13.815 2.59428 13.8809 2.89368 13.88 3.19661C13.8791 3.49954 13.8115 3.79856 13.682 4.0724C13.6416 4.1577 13.6232 4.2518 13.6287 4.34604C13.6342 4.44027 13.6633 4.53161 13.7134 4.61165C13.7634 4.69168 13.8328 4.75782 13.9151 4.80399C13.9975 4.85016 14.0901 4.87487 14.1845 4.87584H18.5626C18.6123 4.87584 18.66 4.8956 18.6952 4.93076C18.7304 4.96592 18.7501 5.01361 18.7501 5.06334V8.30147C18.3082 8.22224 17.8546 8.23725 17.4189 8.34551C16.9832 8.45377 16.5753 8.65284 16.2219 8.92969C15.8685 9.20654 15.5776 9.55492 15.3681 9.95201C15.1587 10.3491 15.0355 10.786 15.0067 11.234C14.9771 11.6693 15.0379 12.106 15.1854 12.5166C15.3329 12.9273 15.5638 13.3029 15.8636 13.6199C16.2276 14.0063 16.682 14.296 17.1859 14.4631C17.6898 14.6302 18.2273 14.6694 18.7501 14.5771V17.8133Z" fill="var(--fill-0, #FEFDF9)"/>
</svg>
