<svg viewBox="0 0 208 48" fill="none" xmlns="http://www.w3.org/2000/svg">
<path id="Vector" d="M38.6176 47.8529C38.3317 47.7735 36.9023 47.0186 35.4411 46.1741C33.9811 45.3295 31.5602 43.9367 30.0627 43.0774C28.5653 42.2181 27.1018 41.3656 26.8103 41.184C26.0876 40.7333 25.4614 40.0261 25.0632 39.2157C24.7331 38.5414 24.7308 38.5244 24.6991 36.2109L24.6662 33.8839L25.6554 33.3163C26.1999 33.0042 27.4081 32.3015 28.3418 31.7555C29.2754 31.2095 30.0571 30.7623 30.0786 30.7623C30.1013 30.7623 30.1194 32.1085 30.1194 33.7545V36.7467L31.8495 37.7434C32.8013 38.2917 33.8087 38.8797 34.09 39.0488C34.3713 39.2191 35.7656 40.0341 37.1893 40.8593L39.777 42.36L41.2733 41.4996C42.0958 41.0262 44.2489 39.7787 46.0584 38.7253L49.3482 36.8114L49.4072 25.594L46.486 23.8924C44.8785 22.9571 42.714 21.6993 41.676 21.0977L39.7872 20.0046L38.2148 20.9161C37.3504 21.4167 35.2131 22.6574 33.466 23.6722C29.4172 26.0231 25.9731 28.0198 22.7456 29.8848C21.3411 30.6964 19.5861 31.7147 18.8431 32.146C16.9111 33.2709 16.5209 33.4537 15.7336 33.5967C14.8975 33.7477 13.8924 33.6035 13.1028 33.2187C12.6615 33.003 11.2128 32.1733 6.97682 29.7123C6.4459 29.4035 5.06869 28.6123 3.91383 27.9528C1.56893 26.6133 0.812261 25.9686 0.301762 24.88L0 24.2352V9.47387L0.363022 8.7383C0.92684 7.59522 1.52356 7.11051 4.3676 5.47818C5.77204 4.67337 7.78795 3.51099 8.84865 2.89688C13.7926 0.034054 13.8652 0 15.1301 0C16.0217 0 16.8 0.308758 18.7705 1.44617C19.8028 2.04098 21.846 3.21812 23.3128 4.06039C29.1779 7.43403 29.1416 7.40792 29.82 8.84046L30.1762 9.59193V14.1302L24.7308 17.2553L24.6707 11.2515L23.3389 10.4694C22.6072 10.038 20.5538 8.84387 18.775 7.81316C16.9962 6.78359 15.4352 5.87435 15.3036 5.79262C15.0506 5.6337 15.3252 5.48386 7.34551 10.1323L5.3886 11.2719V22.3588L5.81402 22.6301C6.04771 22.7788 7.28539 23.5031 8.56504 24.2386C9.84469 24.9742 11.8027 26.1093 12.9168 26.7609C14.0308 27.4113 15.0257 27.9222 15.1289 27.8949C15.231 27.8688 20.3689 24.9174 26.546 21.3372C32.723 17.757 38.0186 14.7352 38.3135 14.6229C39.1564 14.3028 39.9517 14.2505 40.7832 14.4639C41.5966 14.6728 41.7032 14.7296 46.1718 17.3131C47.9188 18.3234 50.165 19.622 51.1634 20.1987C53.3188 21.4439 53.7635 21.7913 54.2626 22.6245C54.9773 23.8141 54.9751 23.7902 54.9399 31.4797L54.907 38.4369L54.4839 39.294C54.2297 39.8071 53.8645 40.3304 53.5763 40.5948C53.3097 40.8389 51.6625 41.8628 49.9155 42.8685C48.1684 43.8754 45.6159 45.3465 44.2433 46.1377C42.8706 46.9301 41.4559 47.6758 41.0986 47.7973C40.3635 48.0459 39.3969 48.0675 38.6176 47.8529ZM68.6905 14.4163H74.1358V16.447L74.728 15.8783C76.6758 14.0099 80.1529 13.5581 83.3566 14.7568C85.1728 15.4368 87.0753 17.3937 87.8535 19.3836C89.098 22.5666 88.9925 26.4363 87.5812 29.3433C86.6827 31.1925 85.4451 32.4298 83.6084 33.3129C82.1166 34.0303 81.2034 34.2233 79.2975 34.221C77.1546 34.2199 75.9441 33.8442 74.6747 32.7862L74.1358 32.3378V41.8866H68.6905V14.4163ZM80.407 29.2889C81.2068 28.9858 82.2448 28.0629 82.6759 27.2683C83.5971 25.5747 83.6005 22.7868 82.6816 21.0977C82.2425 20.2906 81.4416 19.5357 80.6021 19.1373C79.9169 18.8115 79.7763 18.7866 78.6169 18.7866C77.4393 18.7866 77.3236 18.8081 76.5749 19.1623C74.779 20.0125 73.8669 21.6778 73.8567 24.1217C73.8499 25.9254 74.323 27.3171 75.2623 28.257C76.551 29.5465 78.6282 29.9631 80.407 29.2889ZM126.774 41.8197C126.774 41.7516 129.115 35.1201 129.442 34.2619C129.592 33.8691 129.579 33.7817 129.22 32.7862C128.858 31.7816 124.384 19.5448 123.153 16.1939C122.836 15.3301 122.576 14.5763 122.576 14.5184C122.576 14.4549 123.678 14.4242 125.321 14.4424L128.065 14.473L129.054 17.5379C131.452 24.9674 132.033 26.7382 132.099 26.8154C132.165 26.8926 132.653 25.426 135.279 17.2825L136.203 14.4163H138.976C140.501 14.4163 141.749 14.4299 141.749 14.4469C141.749 14.4639 141.439 15.3198 141.061 16.3483C138.618 23.0025 134.552 34.221 133.883 36.1542C133.603 36.9658 133.045 38.5754 132.645 39.7299L131.915 41.8299L129.345 41.8605C127.931 41.8776 126.774 41.8594 126.774 41.8197ZM145.152 37.6866L149.831 37.6855C152.705 37.6855 154.674 37.6401 154.933 37.5674C155.565 37.3926 156.277 36.791 156.604 36.1565C156.871 35.6377 156.897 35.4572 156.932 33.834L156.972 32.0734L156.408 32.6012C155.779 33.1892 154.84 33.7034 153.825 34.0144C152.888 34.3028 150.201 34.2994 149.066 34.0099C144.515 32.8487 141.979 28.618 142.438 22.9582C142.734 19.2996 144.384 16.5083 147.077 15.1064C148.519 14.355 149.445 14.1529 151.448 14.1495C152.989 14.1472 153.236 14.1756 154.057 14.4481C155.045 14.7761 155.766 15.1882 156.486 15.8397L156.95 16.2586V14.4163H162.395V25.0911C162.395 36.8432 162.4 36.7501 161.698 38.2304C161.284 39.1033 160.213 40.2736 159.347 40.7992C158.994 41.0137 158.299 41.3327 157.8 41.5098L156.893 41.8299L145.152 41.898V37.6866ZM154.243 29.2945C156.058 28.6078 157.123 26.9437 157.255 24.586C157.457 20.983 155.387 18.5959 152.197 18.7514C149.724 18.8717 148.114 20.5097 147.769 23.2579C147.391 26.2717 148.767 28.7792 151.167 29.4523C151.999 29.6862 153.4 29.6146 154.243 29.2945ZM99.4906 34.2051C99.3034 34.1813 98.7929 34.0803 98.3562 33.9793C94.7622 33.1495 92.1644 30.7214 91.081 27.1809C90.7928 26.2387 90.7701 26.0208 90.7701 24.1785C90.7701 22.3361 90.7928 22.1182 91.081 21.176C92.6193 16.1451 97.3953 13.3504 102.919 14.246C105.179 14.6126 106.886 15.4867 108.453 17.0748C109.855 18.4982 110.484 19.6197 111.019 21.6539C111.348 22.9026 111.348 25.4544 111.019 26.703C110.484 28.736 109.856 29.8576 108.453 31.2833C106.855 32.9066 104.986 33.8385 102.687 34.1575C101.848 34.2744 100.238 34.2982 99.4906 34.2051ZM102.066 29.5011C104.496 28.9926 106.064 26.6247 105.856 23.7778C105.73 22.0569 105.199 20.8514 104.137 19.8808C103.216 19.0374 102.506 18.7934 100.965 18.79C99.7856 18.7866 99.6744 18.807 98.9234 19.1623C97.6415 19.7684 96.7033 20.9445 96.3176 22.4224C96.0929 23.2851 96.0929 25.0718 96.3176 25.9345C97.0016 28.5624 99.4112 30.0574 102.066 29.5011ZM174.25 34.1666C170.93 33.6626 168.175 31.7203 166.764 28.8893C165.938 27.2297 165.757 26.3818 165.757 24.1785C165.757 21.9695 165.939 21.1102 166.761 19.4676C167.733 17.5243 169.114 16.161 171.074 15.2097C172.844 14.3516 173.876 14.1313 176.065 14.145C177.53 14.1541 178.051 14.2029 178.759 14.3947C180.721 14.9282 181.876 15.5548 183.193 16.8001C184.649 18.177 185.488 19.6197 186.003 21.6244C186.366 23.0411 186.371 25.2671 186.013 26.7098C184.857 31.3809 180.858 34.3402 175.802 34.2676C175.26 34.2596 174.562 34.2142 174.25 34.1666ZM177.052 29.5011C179.235 29.0448 180.657 27.2433 180.841 24.6972C180.998 22.5461 180.245 20.6618 178.799 19.5914C177.51 18.6367 175.439 18.4506 173.934 19.1566C172.136 19.9977 171.131 21.7992 171.131 24.1785C171.131 25.3216 171.294 26.1003 171.717 26.9732C172.672 28.9404 174.835 29.9654 177.052 29.5011ZM114.635 5.90272H119.967V33.9407H114.635V5.90272ZM189.282 14.4163H194.727V16.9658L195.096 16.514C196.055 15.338 197.417 14.5423 198.977 14.2437C202.888 13.4945 206.324 15.3562 207.478 18.8501C207.924 20.2009 207.997 21.4802 207.998 28.1231L208 33.9407H202.571L202.531 27.9528C202.492 21.9842 202.491 21.9627 202.226 21.2839C201.871 20.378 200.905 19.4086 200.086 19.1362C199.487 18.9375 198.312 18.8808 197.724 19.0227C196.779 19.2508 195.857 19.9546 195.334 20.8491C194.75 21.8458 194.729 22.0921 194.728 28.2366L194.727 33.9407H189.282V14.4163Z" fill="var(--fill-0, #F6F1DD)"/>
</svg>
