<svg viewBox="0 0 237 47.9375" fill="none" xmlns="http://www.w3.org/2000/svg">
<g id="Vector">
<path d="M22.7352 47.3182H13.5415C13.5415 46.1641 13.5415 1.286 13.5415 0H22.7352C22.7352 1.02221 22.7352 46.0652 22.7352 47.3182ZM9.19365 23.6426H0C0 25.1924 0 46.296 0 47.3182H9.19365C9.19365 45.9992 9.19365 25.0935 9.19365 23.6426ZM36.2435 0H27.0499C27.0499 1.05518 27.0499 22.9172 27.0499 23.6756H36.2435C36.2435 22.3896 36.2435 0.956257 36.2435 0Z" fill="var(--fill-0, #F6F1DD)"/>
<path d="M109.525 25.7267V39.2921H106.386V25.6915C106.386 21.5446 104.693 19.6468 101.06 19.6468C96.7214 19.6468 94.464 22.8449 94.464 25.9727V39.2921H91.3247V17.011H94.464V19.4359C96.0159 17.8896 98.3439 16.6947 101.236 16.6947C106.598 16.6947 109.525 19.8928 109.525 25.7267ZM146.632 16.6947C143.704 16.6947 141.376 17.8896 139.86 19.4359V7.17077H136.72V39.2921H139.86V25.9727C139.86 22.8449 142.117 19.6468 146.456 19.6468C150.089 19.6468 151.782 21.5797 151.782 25.6915V39.2921H154.921V25.7267C154.886 19.8928 151.958 16.6947 146.632 16.6947ZM193.192 27.9759V28.2922C193.192 34.7586 188.571 39.6436 182.434 39.6436C176.437 39.6436 171.711 34.6883 171.711 28.3624V28.0462C171.711 21.6148 176.331 16.765 182.504 16.765C188.712 16.7299 193.192 21.4743 193.192 27.9759ZM190.017 28.2922V27.9759C190.017 23.0557 186.948 19.6468 182.539 19.6468C178.13 19.6468 174.92 23.1612 174.92 28.011V28.3273C174.92 33.142 178.095 36.6564 182.504 36.6564C186.948 36.6564 190.017 33.2123 190.017 28.2922ZM206.63 16.6947C203.703 16.6947 201.375 17.8896 199.858 19.4359V17.011H196.719V39.3273H199.858V25.9727C199.858 22.8449 202.116 19.6468 206.454 19.6468C210.087 19.6468 211.78 21.5797 211.78 25.6915V39.2921H214.919V25.7267C214.919 19.8928 211.992 16.6947 206.63 16.6947ZM123.352 36.6564C118.978 36.6564 115.769 33.142 115.769 28.3273V28.011C115.769 23.1612 118.978 19.6468 123.387 19.6468C126.456 19.6468 128.855 21.2986 130.054 23.9343H133.405C131.959 19.5765 128.184 16.7299 123.352 16.7299C117.215 16.7299 112.559 21.5797 112.559 28.011V28.3273C112.559 34.6532 117.25 39.6084 123.282 39.6084C128.467 39.6084 132.593 36.0941 133.722 31.0685H130.512C129.56 34.4775 126.879 36.6564 123.352 36.6564ZM169.383 16.6947C166.455 16.6947 164.127 17.8896 162.61 19.4359V17.011H159.471V39.3273H162.61V25.9727C162.61 22.8449 164.868 19.6468 169.206 19.6468C170.053 19.6468 170.758 19.7522 171.393 19.9631V16.8704C170.758 16.7299 170.088 16.6947 169.383 16.6947ZM59.1915 26.3944C54.2181 25.5861 53.3363 24.6724 53.3363 22.88C53.3363 20.9471 55.3468 19.6468 58.2744 19.6468C61.3078 19.6468 63.0362 20.7363 63.53 23.126L63.5653 23.2666H66.8456L66.7751 22.8449C66.1049 18.9088 63.1067 16.765 58.3449 16.765C53.6184 16.765 50.1617 19.3656 50.1617 22.9152C50.1617 27.5893 54.1475 28.6436 58.5566 29.3816C62.7187 30.0845 63.9885 30.6819 63.9885 33.142C63.9885 35.3912 61.9427 36.7969 58.7682 36.7969C54.4297 36.7969 53.0893 34.5126 52.7366 32.5094H49.3857C49.7737 36.9727 53.3715 39.7139 58.7329 39.7139C63.7416 39.7139 67.2689 36.9727 67.2689 33.0366C67.2336 28.1516 63.4242 27.1324 59.1915 26.3944ZM233.79 17.011L226.983 35.356L219.082 17.011H215.837L225.29 39.2219L222.327 47.9375H225.607L237 17.011H233.79ZM85.4695 17.011L78.6619 35.356L70.7609 17.011H67.5158L76.9688 39.2219L74.0059 47.9375H77.2863L88.6793 17.011H85.4695Z" fill="var(--fill-0, #F6F1DD)"/>
</g>
</svg>
